<?xml version="1.0" ?>
<!DOCTYPE svg  PUBLIC '-//W3C//DTD SVG 1.1//EN'  'http://www.w3.org/Graphics/SVG/1.1/DTD/svg11.dtd'>
<!-- Uploaded to: SVG Repo, www.svgrepo.com, Generator: SVG Repo Mixer Tools -->
<svg width="800px" height="800px" viewBox="0 0 512 512" version="1.1" xml:space="preserve" xmlns="http://www.w3.org/2000/svg" xmlns:xlink="http://www.w3.org/1999/xlink">
<g id="email_x2C__mail__x2C__letter__x2C__internet__x2C__envelope__x2C__chat__x2C___good__x2C_">
<g>
<path d="M396.172,265.415c-43.832,0-79.301,35.483-79.301,79.302    c0,43.918,35.469,79.402,79.301,79.402c43.805,0,79.389-35.484,79.389-79.402C475.561,300.898,439.977,265.415,396.172,265.415    L396.172,265.415z" style="fill-rule:evenodd;clip-rule:evenodd;fill:#FBCD64;"/>
<path d="M396.172,272.062c-20.041,0-38.208,8.146-51.416,21.354    c-13.091,13.106-21.252,31.273-21.252,51.301c0,20.143,8.161,38.296,21.252,51.416c13.208,13.193,31.375,21.253,51.416,21.253    c20.13,0,38.297-8.146,51.389-21.253c13.12-13.12,21.252-31.273,21.252-51.416c0-20.027-8.132-38.194-21.252-51.301    C434.469,280.208,416.302,272.062,396.172,272.062L396.172,272.062z M335.297,283.957c15.63-15.645,37.086-25.289,60.875-25.289    c23.762,0,45.304,9.645,60.847,25.289c15.544,15.543,25.204,37.07,25.204,60.76c0,23.79-9.66,45.318-25.204,60.86    c-15.543,15.644-37.085,25.19-60.847,25.19c-23.789,0-45.245-9.547-60.875-25.19c-15.543-15.542-25.174-37.07-25.174-60.86    C310.123,321.027,319.754,299.5,335.297,283.957L335.297,283.957z" style="fill:#4A374F;"/>
<path d="M437.266,315.981c3.086-2.063,7.209-1.227,9.285,1.874c2.048,3.084,1.211,7.209-1.875,9.257    l-69.121,46.355c-2.999,2.062-7.094,1.312-9.17-1.688l-20.504-29.024c-2.047-2.999-1.413-7.209,1.673-9.357    c3-2.063,7.123-1.413,9.285,1.687l16.755,23.676L437.266,315.981z" style="fill:#4A374F;"/>
<path d="M438.39,254.083V123.19c0-9.747-3.921-18.542-10.295-24.915    L296.34,230.018l-25.645,25.665c-9.171,9.17-21.252,13.855-33.234,13.855c-11.997,0-23.978-4.686-33.148-13.855l-25.752-25.665    l-54.876,54.588l-76.778,76.318c6.373,6.358,15.269,10.396,24.914,10.396h227.892c-2.249-8.521-3.547-17.418-3.547-26.603    c0-27.525,11.246-52.526,29.299-70.693c18.08-18.067,43.082-29.213,70.707-29.213C411.225,244.811,425.558,248.099,438.39,254.083    L438.39,254.083z" style="fill-rule:evenodd;clip-rule:evenodd;fill:#D8A878;"/>
<path d="M123.685,284.605l54.876-54.588L46.907,98.276    c-6.46,6.373-10.382,15.168-10.382,24.915v212.73c0,9.732,3.922,18.63,10.382,25.003L123.685,284.605z" style="fill-rule:evenodd;clip-rule:evenodd;fill:#D8A878;"/>
<path d="M178.561,230.018l25.752,25.665    c9.17,9.17,21.151,13.855,33.148,13.855c11.982,0,24.063-4.686,33.234-13.855l25.645-25.665L428.095,98.276    c-6.372-6.358-15.37-10.381-25.002-10.381H71.821c-9.645,0-18.542,4.023-24.914,10.381L178.561,230.018z" style="fill-rule:evenodd;clip-rule:evenodd;fill:#FBCD64;"/>
<path d="M301.875,377.965H71.821c-5.623,0-11.044-1.123-16.018-3.186    c-5.147-2.162-9.732-5.249-13.669-9.083l9.459-9.545c2.625,2.609,5.811,4.772,9.357,6.272c3.375,1.397,7.037,2.147,10.872,2.147    h226.306C299.079,369.156,300.29,373.654,301.875,377.965L301.875,377.965z" style="fill:#4A374F;"/>
<path d="M301.039,225.246l37.46,37.834l-0.115,0.086l-0.087,0.101l-0.087,0.086l-0.201,0.102l-0.173,0.087    l-0.203,0.101l-0.172,0.188l-0.087,0.086l0,0l-0.201,0.087l-0.174,0.201l-0.201,0.088l-0.174,0.101l-0.114,0.188l-0.175,0.087l0,0    l-0.2,0.1l-0.174,0.188l-0.202,0.086l-0.086,0.101l-0.173,0.188h-0.115l-0.088,0.087l-0.172,0.188l-0.116,0.101l-0.172,0.087    L334,266.438l-0.201,0.188l-0.174,0.101l-0.114,0.088l0,0l-0.175,0.187l-0.201,0.102l-0.087,0.187l-0.172,0.087l-0.202,0.102    l-0.087,0.086l-0.086,0.101l-0.116,0.087l-0.172,0.188l-0.175,0.101l-0.2,0.188l-0.548,0.462l-0.202,0.187l-0.174,0.102    l-0.201,0.188l0,0l-0.087,0.086l-0.202,0.188l-0.172,0.1l-0.088,0.188l-0.2,0.087l-0.088,0.1l-0.086,0.088l-0.115,0.101    l-0.173,0.188l-0.202,0.087l-0.087,0.187l-0.173,0.102l-0.115,0.086l-0.087,0.101l-0.086,0.087l-0.202,0.188l-0.172,0.102    l-0.088,0.187l-0.2,0.086l-36.509-36.795L301.039,225.246z M431.729,251.271V123.19c0-3.849-0.721-7.584-2.134-10.872    c-1.5-3.46-3.662-6.647-6.286-9.357l9.458-9.459c3.836,3.836,7.036,8.522,9.17,13.669c2.076,4.96,3.202,10.396,3.202,16.019    v134.366l-0.203-0.101l-0.173-0.101l-0.288-0.188l-0.173-0.085l-0.202-0.102l-0.173-0.087l-0.115-0.101h-0.087l-0.172-0.087    l-0.289-0.187l-0.202-0.087l-0.173-0.101l-0.087-0.086h-0.116l-0.172-0.101l-0.201-0.087l-0.261-0.101l-0.201-0.188l-0.173-0.086    l0,0l-0.202-0.101l-0.173-0.087l-0.202-0.101l-0.289-0.087l-0.172-0.101l0,0l-0.202-0.087l-0.173-0.101l-0.174-0.086l-0.288-0.188    l-0.201-0.1h-0.087l-0.087-0.087l-0.202-0.101l-0.259-0.086l-0.202-0.101l-0.173-0.087l-0.202-0.1l0,0l-0.173-0.086l-0.288-0.102    l-0.201-0.086l-0.174-0.1l-0.202-0.087l0,0l-0.837-0.375l-0.288-0.1l0,0l-0.172-0.086l-0.202-0.102l-0.174-0.086l-0.288-0.101    l-0.173-0.086h-0.115l-0.086-0.101l-0.289-0.086l-0.173-0.101l-0.202-0.087l-0.172-0.1h-0.202l-0.087-0.086l-0.173-0.102    l-0.202-0.086h-0.289l-0.173-0.101l-0.172-0.087l0,0l-0.203-0.101l-0.288-0.086l-0.173-0.101l-0.202-0.087L431.729,251.271z" style="fill:#4A374F;"/>
<path d="M428.095,98.276L270.695,255.683    c-9.171,9.17-21.252,13.855-33.234,13.855c-11.997,0-23.978-4.686-33.148-13.855L46.907,98.276    c6.373-6.358,15.269-10.381,24.914-10.381h331.272C412.725,87.895,421.723,91.917,428.095,98.276L428.095,98.276z" style="fill-rule:evenodd;clip-rule:evenodd;fill:#D8A878;"/>
<path d="M432.767,102.962L275.375,260.354c-5.155,5.162-11.038,9.084-17.41,11.809    c-6.561,2.71-13.583,4.11-20.503,4.11c-6.936,0-13.958-1.4-20.518-4.11c-6.272-2.725-12.255-6.646-17.403-11.809L37.462,98.276    l4.671-4.773c3.85-3.834,8.522-6.92,13.669-9.083c4.974-2.062,10.396-3.187,16.018-3.187h331.272    c5.624,0,11.046,1.125,16.005,3.187c5.162,2.163,9.834,5.249,13.669,9.083l4.787,4.773L432.767,102.962z M265.923,250.91    L418.089,98.837c-1.327-0.749-2.624-1.499-4.038-2.061c-3.373-1.399-7.122-2.149-10.958-2.149H71.821    c-3.834,0-7.497,0.75-10.872,2.149c-1.397,0.562-2.797,1.225-4.022,2.061L208.999,250.91c3.835,3.921,8.319,6.835,13.107,8.882    c4.858,1.975,10.107,3.1,15.355,3.1c5.234,0,10.482-1.125,15.356-3.1C257.59,257.745,262.088,254.832,265.923,250.91    L265.923,250.91z" style="fill:#4A374F;"/>
<path d="M51.592,102.962c-2.625,2.624-4.772,5.81-6.171,9.357c-1.414,3.288-2.163,7.023-2.163,10.872    v212.73c0,3.938,0.749,7.672,2.163,10.959c0.562,1.398,1.21,2.812,2.062,4.022l126.392-125.657l9.459,9.458L46.907,370.381    l-4.773-4.685c-3.835-3.937-7.021-8.521-9.083-13.669c-2.047-4.96-3.272-10.396-3.272-16.106V123.19    c0-5.623,1.225-11.058,3.272-16.019c2.063-5.147,5.249-9.732,9.083-13.669L51.592,102.962z" style="fill:#4A374F;"/>
</g>
</g>
<g id="Layer_1"/>
</svg>